<svg width="88" height="49" viewBox="0 0 88 49" fill="none" xmlns="http://www.w3.org/2000/svg">
<g clip-path="url(#clip0_117_3)">
<mask id="mask0_117_3" style="mask-type:alpha" maskUnits="userSpaceOnUse" x="0" y="0" width="88" height="49">
<path fill-rule="evenodd" clip-rule="evenodd" d="M0.469727 0.0859375H87.4253V48.1699H0.469727V0.0859375Z" fill="white"/>
</mask>
<g mask="url(#mask0_117_3)">
<path fill-rule="evenodd" clip-rule="evenodd" d="M83.8254 5.68188C83.8445 5.69997 83.882 5.74262 83.9566 5.84525C84.2609 6.26225 84.5227 6.7469 84.734 7.28535C84.8965 7.69928 85.0271 8.12937 85.1583 8.68051L85.3629 8.64587C85.2861 7.9337 85.1869 7.17042 85.0658 6.37678C84.9896 5.8737 84.7559 4.34248 81.1854 3.87128C80.1978 3.74175 79.1945 3.61607 78.2035 3.49732L77.8425 3.45427L78.1261 3.68026C78.7147 4.15069 79.0857 4.8598 79.1978 5.73188C79.3161 6.64428 79.3475 10.8336 79.3475 11.3655C79.3475 12.2029 79.3077 14.7818 79.1821 15.6804C79.0459 16.6443 78.5785 17.4007 77.8655 17.8093L77.6957 17.9065L77.8711 17.9915C78.5297 18.3112 79.3559 19.0499 79.5515 20.7537C79.6776 21.849 79.7247 24.652 79.7247 26.1613C79.7247 27.365 79.6827 31.9517 79.5493 33.0014C79.352 34.561 78.5706 35.2144 77.9496 35.488L77.6032 35.641L77.9799 35.6848C77.9827 35.6852 77.9877 35.6856 77.9928 35.6856C78.1777 35.6856 79.5588 35.4434 80.0812 34.2946C80.2219 33.9326 80.32 33.5321 80.3744 33.1047C80.5229 31.9364 80.5565 27.0176 80.5565 26.1613C80.5565 24.6336 80.5078 21.7891 80.3777 20.6603C80.2393 19.4562 79.8127 18.5107 79.107 17.8485C79.5812 17.3085 79.8912 16.6009 80.0055 15.7946C80.1479 14.7792 80.1787 11.9993 80.1787 11.3655C80.1787 11.3197 80.1574 6.66928 80.0229 5.62614C79.9719 5.23183 79.8761 4.8598 79.7376 4.51811C80.186 4.57423 80.6327 4.63188 81.0767 4.68992C82.4006 4.86479 83.3254 5.1984 83.8254 5.68188ZM78.0028 32.8081C78.1088 31.9759 78.1665 27.9808 78.1665 26.1613C78.1665 24.5771 78.1155 21.9067 78.0028 20.9301C77.8851 19.9027 77.4692 19.3416 76.7669 19.2617C75.7558 19.1471 74.7283 19.0364 73.7127 18.9331L73.5165 18.9131V33.7877L73.6768 33.8039C74.7166 33.9099 75.7698 34.0237 76.8073 34.1417C76.8538 34.1471 76.8975 34.1494 76.9412 34.1494C77.5326 34.1494 77.8902 33.6982 78.0028 32.8081ZM72.0626 2.8351L71.8367 2.81358C69.8368 2.62218 67.8201 2.4523 65.8426 2.30856L65.2356 2.26436L65.286 2.41195C65.592 3.30399 65.6755 4.14262 65.6918 4.68607V12.3398C65.689 13.9013 65.198 15.2665 64.2317 16.3976L64.1779 16.4607L64.2283 16.5267C65.5791 18.3028 65.6901 20.3659 65.6918 20.9551V31.7538C65.6918 32.1343 65.6419 33.1362 65.1812 34.2209L65.073 34.4906L65.3353 34.3469C65.9351 34.0187 66.3521 33.4153 66.4507 32.7331C66.5107 32.3153 66.523 31.9698 66.523 31.7538V20.9532C66.5214 20.3747 66.421 18.3592 65.2148 16.4898C66.0802 15.2984 66.5202 13.9029 66.523 12.3401L66.5219 4.66532C66.5124 4.31557 66.4737 3.78211 66.351 3.17409C67.9624 3.29515 69.5997 3.43275 71.2207 3.58456L71.2683 3.58917L72.0626 2.8351ZM73.5165 16.2604L73.6768 16.2765C74.6062 16.3714 75.5416 16.4718 76.4564 16.5744C76.5096 16.5805 76.5606 16.5833 76.61 16.5833C77.0068 16.5833 77.5079 16.3892 77.6379 15.4652C77.7383 14.7538 77.7887 12.4532 77.7887 11.3655C77.7887 10.2402 77.7411 6.62273 77.652 5.92827C77.5253 4.94857 76.9687 4.683 76.5237 4.63304C75.5971 4.52849 74.6516 4.42703 73.7127 4.33171L73.5165 4.31173V16.2604ZM87.425 28.1337C87.425 30.7726 87.2675 33.1943 86.9564 35.3324C86.716 36.9877 85.4655 37.7925 83.1349 37.7925C82.6013 37.7925 82.0026 37.7491 81.3552 37.6638C75.6487 36.9174 69.8441 36.3474 64.1016 35.9692L63.9682 35.9561L61.7066 35.7939C63.9458 34.6136 64.133 32.4383 64.133 31.7538V20.9551C64.1325 20.633 64.059 17.8735 61.8602 16.403C62.5221 16.0037 64.1285 14.783 64.133 12.3367V4.73335C64.1016 3.61992 63.7614 1.69785 61.9605 0.479884L65.8112 0.753149L65.9608 0.764291C71.1018 1.13902 76.2927 1.66787 81.3894 2.33585C84.53 2.75055 86.2849 4.03193 86.6072 6.14543C86.9357 8.31 87.1027 10.141 87.1027 11.5876C87.1027 13.1042 86.999 14.7357 86.7944 16.4364C86.6296 17.8046 85.7222 18.4695 84.0205 18.4695C83.7307 18.4695 83.4134 18.4499 83.0766 18.4111L83.0233 18.7605C85.3315 19.1979 86.6549 20.3574 86.957 22.2076C87.2675 24.1166 87.425 26.1106 87.425 28.1337ZM4.97722 30.5643V36.6076L4.98651 36.7252L5.16757 36.6987L5.19195 36.6691C5.58967 36.1921 5.80865 35.5887 5.80865 34.9707V30.5658C5.81173 29.0631 5.27436 27.5872 4.29399 26.4007C5.71616 24.4541 5.80556 22.3636 5.80865 21.9601V7.56899C5.80786 7.03283 5.7309 6.21341 5.37417 5.30524C7.02075 5.06118 8.69056 4.82982 10.3414 4.61689V4.80214L11.2606 3.66758L11.0049 3.69986C8.75631 3.9835 6.49151 4.29789 4.27387 4.63457L4.12183 4.65763L4.19997 4.78907C4.69983 5.6331 4.97606 6.62045 4.97722 7.57016V21.959C4.9749 22.2107 4.90913 24.4737 3.26371 26.3635L3.20065 26.4357L3.26797 26.5034C4.3733 27.6133 4.98032 29.0554 4.97722 30.5643ZM12.7312 25.0487L12.9304 25.0252C13.7626 24.9268 14.6068 24.8315 15.439 24.7412C16.1926 24.6597 16.6677 24.0225 16.8523 22.8468C17.0349 21.6784 17.1107 16.8354 17.1107 14.502C17.1107 12.1872 17.0326 7.16964 16.8519 6.06124C16.6763 4.98508 16.2364 4.43971 15.545 4.43971C15.4982 4.43971 15.4498 4.44202 15.4007 4.4474C14.5662 4.53772 13.7212 4.63342 12.8887 4.73143L12.7312 4.75026V25.0487ZM16.566 3.05687L16.8446 3.21598C17.9607 3.85437 18.2977 5.24529 18.3905 5.81373C18.62 7.22075 18.6695 13.1181 18.6695 14.502C18.6695 15.9406 18.6227 21.6131 18.3921 23.0851C18.2064 24.2681 17.7553 25.1463 17.05 25.6955L16.3083 26.2735L17.2183 25.8419C18.2853 25.3362 19.0301 24.3615 19.2096 23.235L19.2135 23.2119C19.4885 21.4559 19.5005 14.5709 19.5005 14.502C19.5005 14.4317 19.4835 7.35528 19.2111 5.68149C19.1411 5.2499 18.9534 4.44087 18.4799 3.69333L19.0428 3.63875C20.1613 3.53306 21.1099 3.56957 21.8172 3.73714C22.6439 3.85437 23.7338 4.46124 24.2302 6.68732C24.2441 6.75074 24.2542 6.79223 24.26 6.80721L24.5796 7.64472L24.4604 6.75687C24.4449 6.64194 24.3807 6.21302 24.3261 5.84948C24.2902 5.61155 24.2588 5.40209 24.2484 5.32638C24.0654 4.05422 23.4444 2.75362 20.2216 2.75362C19.829 2.75362 19.4057 2.77476 18.9643 2.81627C18.2729 2.88276 17.5792 2.95156 16.8855 3.02381L16.566 3.05687ZM3.41846 38.5281V30.5643C3.4235 28.1199 1.44999 26.9157 0.623993 26.5187C3.36276 25.0021 3.41769 22.0754 3.41846 21.947V7.57016C3.41769 7.07665 3.26371 4.74218 0.469238 3.6449L3.73958 3.14757L3.99028 3.11144C8.91107 2.36314 13.8992 1.74551 18.8145 1.27508C19.3059 1.22857 19.7795 1.20513 20.2216 1.20513C23.5454 1.20513 25.4195 2.51841 25.7913 5.10769C26.2211 8.10437 26.4397 10.9896 26.4397 13.6834C26.4397 16.4122 26.2211 19.3408 25.7913 22.3875C25.375 25.3442 23.0815 26.9792 18.7805 27.3858C16.8252 27.5726 14.8428 27.7844 12.8887 28.0146L12.7312 28.0334V37.2598C9.63222 37.6269 6.50076 38.0535 3.41846 38.5281ZM55.5544 1.82045L55.2754 1.81046C53.1418 1.73205 50.9806 1.67825 48.8512 1.65057L48.746 1.64942V29.3609C48.746 30.8771 48.5208 31.956 48.0379 32.7565C47.8193 33.1194 47.5288 33.428 47.1748 33.6744L47.2777 33.8527L48.7487 33.1851L48.7653 33.157C49.3197 32.2254 49.5774 31.0193 49.5774 29.3609V2.48689C51.1609 2.51188 52.7653 2.55108 54.3496 2.60373L54.3009 2.81896L55.5544 1.82045ZM40.5815 1.67287L40.354 1.67748C38.3461 1.71553 36.33 1.77587 34.362 1.85735L34.2648 1.87503L33.7255 1.89502L33.7851 2.03299C34.1031 2.77361 34.2641 3.55958 34.2625 4.36899V12.0554C34.2621 12.0773 34.1643 14.2876 32.7328 16.1932L32.684 16.2573L32.7347 16.3199C33.7518 17.5656 34.2656 19.0265 34.2625 20.6626V27.2828C34.2625 30.6965 35.4634 31.9056 36.3668 32.5182L36.4945 32.3557C34.76 30.828 35.0893 26.9749 35.0931 26.9361L35.0939 20.6637C35.097 19.0538 34.6192 17.5241 33.7124 16.237C35.0185 14.2157 35.0935 12.0792 35.0939 12.0573V4.37053C35.0947 3.79595 35.0235 3.22713 34.8815 2.67829L34.9934 2.67407L35.0939 2.65485C36.6299 2.59566 38.1851 2.54839 39.7203 2.51572V2.70212L40.5815 1.67287ZM58.8172 16.3653C58.204 16.8015 56.5729 18.1986 56.5678 20.731V27.2121C56.5678 30.3252 55.6615 32.4614 53.7975 33.7431C51.9722 35.0007 48.9797 35.6175 44.6481 35.6283H44.4987C40.2473 35.6283 37.2992 35.0288 35.4862 33.7958C33.6137 32.5263 32.7037 30.3959 32.7037 27.2828V20.6622C32.7084 18.1302 31.0715 16.7262 30.4555 16.2881C32.5157 14.7742 32.7034 12.0719 32.7037 12.045V4.36938C32.7076 2.25168 31.2932 1.01181 30.5012 0.483727C31.4971 0.428382 32.52 0.390333 32.5323 0.389949L32.7037 0.383415V0.380724C35.8232 0.233139 38.986 0.138976 42.1105 0.100542V29.3748C42.1105 30.5827 42.2745 31.4329 42.6119 31.9741C42.9578 32.5301 43.6379 32.8127 44.6326 32.8127C45.6714 32.8099 46.3616 32.5236 46.7005 31.9614C47.0282 31.4183 47.1872 30.5678 47.1872 29.3609V0.0859375C50.3593 0.106692 53.5716 0.184712 56.7388 0.318077C56.7539 0.318077 57.7471 0.335757 58.7275 0.384952C57.9243 0.881518 56.5723 2.02531 56.5678 4.09688V12.1126C56.5689 12.555 56.972 14.994 58.8172 16.3653ZM65.1918 44.9139C65.1918 43.684 64.2401 42.9495 63.1146 42.9495C61.9633 42.9495 61.0244 43.684 61.0244 44.9139C61.0244 46.1273 61.9633 46.8909 63.1146 46.8909C64.2401 46.8909 65.1918 46.1273 65.1918 44.9139ZM66.6873 44.9058C66.6873 46.8125 65.0837 48.17 63.1146 48.17C61.1287 48.17 59.529 46.8125 59.529 44.9058C59.529 42.9992 61.1287 41.6701 63.1146 41.6701C65.0837 41.6701 66.6873 42.9992 66.6873 44.9058ZM56.4681 46.5273H56.3061L53.3727 41.8888H51.1087V47.9513H52.5958V43.3623H52.7247L55.6909 47.9513H57.9551V41.8888H56.4681V46.5273ZM47.6944 47.9513H49.182V41.8888H47.6944V47.9513ZM43.5451 44.2825C43.1461 44.2286 42.5894 44.2163 42.2409 44.1918C41.4261 44.1341 41.1019 43.8616 41.1019 43.4984C41.1019 43.1229 41.4679 42.7843 42.6479 42.7843C43.5783 42.7843 44.6044 43.0114 45.3313 43.3331H45.4393V42.1532C44.9495 41.9299 43.8232 41.6824 42.8347 41.6824C40.6991 41.6824 39.5733 42.4745 39.5733 43.6014C39.5733 44.819 40.4748 45.2813 41.8834 45.4131C42.2409 45.4462 42.8595 45.4751 43.2255 45.5038C44.1269 45.5742 44.3679 45.8424 44.3679 46.1849C44.3679 46.6388 43.9149 47.0189 42.5647 47.0189C41.5507 47.0189 40.4581 46.7503 39.7606 46.3955H39.636V47.6254C40.3835 47.9267 41.476 48.1577 42.5438 48.1577C44.7498 48.1577 45.9298 47.419 45.9298 46.1273C45.9298 45.0046 45.3394 44.5219 43.5451 44.2825ZM36.2759 45.4915L35.9478 43.0568H32.9107L32.5784 45.4915H36.2759ZM37.1901 41.8888L38.1 47.9513H36.6082L36.4337 46.6596H32.4206L32.2461 47.9513H30.7589L31.6688 41.8888H37.1901ZM23.2858 44.9304C23.2858 46.7918 24.9061 48.17 26.9043 48.17C27.7435 48.17 28.5621 47.997 29.1189 47.5966V46.3748H28.9649C28.5455 46.6638 27.7601 46.8909 27.0665 46.8909C25.7081 46.8909 24.7563 45.987 24.7563 44.9347C24.7563 43.8989 25.7081 42.9495 27.0665 42.9495C27.7934 42.9495 28.5455 43.1928 28.9607 43.4857L29.1189 43.4899V42.2477C28.5621 41.8477 27.7435 41.6701 26.9043 41.6701C24.9061 41.6701 23.2858 43.0733 23.2858 44.9304ZM76.7299 45.9363H77.4009V43.7982H76.7299V45.9363ZM76.3454 43.7982H75.5758L75.2294 44.5964L74.8853 43.7982H74.1135L74.7255 44.8781L74.0944 45.9363H74.8645L75.2294 45.1603L75.5977 45.9363H76.3667L75.7322 44.8781L76.3454 43.7982ZM73.8809 43.7982H73.1107L72.7643 44.5964L72.4202 43.7982H71.6483L72.2604 44.8781L71.6293 45.9363H72.3994L72.7643 45.1603L73.1326 45.9363H73.9016L73.2665 44.8781L73.8809 43.7982ZM70.9707 43.7982L70.8373 44.2859V44.7137H71.3104V44.2398L71.2582 44.3381L71.3961 43.7982H70.9707ZM19.203 45.3455C19.1515 45.3163 19.0955 45.3013 19.0347 45.3013C18.9709 45.3013 18.9129 45.3163 18.8602 45.3455C18.8076 45.3751 18.7662 45.4155 18.736 45.467C18.7059 45.5181 18.6908 45.5749 18.6908 45.6369C18.6908 45.6972 18.7059 45.7537 18.736 45.8056C18.7662 45.8582 18.8076 45.8993 18.8602 45.9293C18.9129 45.9593 18.9709 45.9743 19.0347 45.9743C19.0955 45.9743 19.1515 45.9593 19.203 45.9293C19.2548 45.8993 19.2955 45.8582 19.3253 45.8056C19.3546 45.7537 19.3694 45.6972 19.3694 45.6369C19.3694 45.5749 19.3546 45.5181 19.3253 45.467C19.2955 45.4155 19.2548 45.3751 19.203 45.3455ZM16.6097 44.229H17.2171V45.9363H17.8899V44.229H18.4962V43.7982H16.6097V44.229ZM15.2003 44.6456C15.027 44.6118 14.8881 44.583 14.784 44.5591C14.6796 44.5353 14.6277 44.4807 14.6277 44.3954C14.6277 44.3339 14.6625 44.2882 14.7329 44.2575C14.8034 44.2267 14.8896 44.2114 14.9929 44.2114C15.0854 44.2114 15.1655 44.2298 15.2343 44.2663C15.3032 44.3024 15.3373 44.3958 15.3373 44.5457H16.0104C16.0104 44.3209 15.9411 44.1368 15.8038 43.9938C15.6657 43.8508 15.3957 43.7789 14.9929 43.7789C14.589 43.7789 14.3151 43.8489 14.1708 43.988C14.0268 44.1276 13.9623 44.2836 13.977 44.4554C13.9859 44.633 14.042 44.7678 14.146 44.8609C14.2505 44.9539 14.4636 45.0315 14.7855 45.0938C14.9608 45.1253 15.0989 45.1533 15.2003 45.1779C15.3013 45.2022 15.3515 45.2521 15.3515 45.3282C15.3515 45.3935 15.3175 45.4424 15.2494 45.4739C15.1813 45.5058 15.0981 45.5215 15.0007 45.5215C14.902 45.5215 14.8188 45.5027 14.7507 45.4654C14.6826 45.4278 14.6482 45.3325 14.6482 45.1795H13.9754C13.9754 45.4159 14.0435 45.6034 14.1785 45.7414C14.3147 45.8801 14.5898 45.9493 15.0057 45.9493C15.4119 45.9493 15.6847 45.882 15.8251 45.7479C15.9659 45.6138 16.0286 45.4497 16.0135 45.2552C16.0039 45.0676 15.9493 44.9347 15.8502 44.8578C15.7505 44.7805 15.5338 44.7098 15.2003 44.6456ZM11.7531 43.7982H13.3316V44.229H12.4275V44.6629H13.2566V45.0573H12.4275V45.5058H13.3316V45.9363H11.7531V43.7982Z" fill="white"/>
</g>
</g>
<defs>
<clipPath id="clip0_117_3">
<rect width="88" height="49" fill="white"/>
</clipPath>
</defs>
</svg>
